rec1_006.mot
nRows=22
nColumns=19

name rec1_006.mot
datacolumns 19
datarows 22
range 5.0020399500 5.0440399539
endheader
time	ground_force_vx	ground_force_vy	ground_force_vz	ground_force_px	ground_force_py	ground_force_pz	1_ground_force_vx	1_ground_force_vy	1_ground_force_vz	1_ground_force_px	1_ground_force_py	1_ground_force_pz	ground_torque_x	ground_torque_y	ground_torque_z	1_ground_torque_x	1_ground_torque_y	1_ground_torque_z	
        5.0020399500	       45.4400302201	      681.3648273206	      -43.7231514856	       -0.7000000000	       -0.0180000000	        0.5600000000	       -1.7429868417	        6.2318099781	        0.7695187222	       -0.7000000000	       -0.0180000000	       -0.5600000000	      331.9048089998	        4.8782008604	      634.8329511116	       -1.5304130734	       -0.4433576079	        4.7935910838	
        5.0040396453	       45.8639963494	      681.3754119188	      -43.4790000260	       -0.7000000000	       -0.0180000000	        0.5600000000	       -1.6806301136	        6.1603311940	        0.7587579585	       -0.7000000000	       -0.0180000000	       -0.5600000000	      331.9654664013	        4.5620759113	      634.0348846226	       -1.5045290964	       -0.3981662760	        4.7703781175	
        5.0060399809	       46.2767585701	      681.3466224909	      -43.2537842466	       -0.7000000000	       -0.0180000000	        0.5600000000	       -1.6012218508	        6.0691291946	        0.7436182941	       -0.7000000000	       -0.0180000000	       -0.5600000000	      332.0089717030	        4.2626820212	      633.2062768423	       -1.4703875053	       -0.3406525710	        4.7190669872	
        5.0080397162	       46.6817760822	      681.2909986943	      -43.0503908051	       -0.7000000000	       -0.0180000000	        0.5600000000	       -1.5081567272	        5.9623077852	        0.7245317881	       -0.7000000000	       -0.0180000000	       -0.5600000000	      332.0411256509	        3.9811948175	      632.3575070126	       -1.4292881359	       -0.2729713584	        4.6428427511	
        5.0100402516	       47.0820723979	      681.2217936886	      -42.8711106726	       -0.7000000000	       -0.0180000000	        0.5600000000	       -1.4055387531	        5.8437108371	        0.7021522449	       -0.7000000000	       -0.0180000000	       -0.5600000000	      332.0680704499	        3.7177304099	      631.4996175253	       -1.3825820729	       -0.1975883922	        4.5441614126	
        5.0120397471	       47.4796322412	      681.1523238359	      -42.7177985245	       -0.7000000000	       -0.0180000000	        0.5600000000	       -1.2975009539	        5.7165718118	        0.6773418199	       -0.7000000000	       -0.0180000000	       -0.5600000000	      332.0959753898	        3.4719932687	      630.6437479281	       -1.3315729692	       -0.1169629284	        4.4244443104	
        5.0140400426	       47.8750678429	      681.0955501002	      -42.5921372236	       -0.7000000000	       -0.0180000000	        0.5600000000	       -1.1875876260	        5.5838733705	        0.6512051945	       -0.7000000000	       -0.0180000000	       -0.5600000000	      332.1308257926	        3.2442420581	      629.8007488486	       -1.2775925673	       -0.0334623234	        4.2848850415	
        5.0160397779	       48.2676324810	      681.0639001991	      -42.4957578246	       -0.7000000000	       -0.0180000000	        0.5600000000	       -1.0785174326	        5.4490345058	        0.6249427766	       -0.7000000000	       -0.0180000000	       -0.5600000000	      332.1782772481	        3.0357204071	      628.9810456879	       -1.2221307586	        0.0506796593	        4.1276827917	
        5.0180400734	       48.6556057586	      681.0690385474	      -42.4302806726	       -0.7000000000	       -0.0180000000	        0.5600000000	       -0.9725154320	        5.3162248727	        0.5995393099	       -0.7000000000	       -0.0180000000	       -0.5600000000	      332.2435361198	        2.8482176198	      628.1945751467	       -1.1668498225	        0.1333975166	        3.9566481246	
        5.0200398088	       49.0368838444	      681.1215677017	      -42.3971784811	       -0.7000000000	       -0.0180000000	        0.5600000000	       -0.8720498432	        5.1900575504	        0.5757184697	       -0.7000000000	       -0.0180000000	       -0.5600000000	      332.3312002507	        2.6833584862	      627.4506509169	       -1.1135228194	        0.2125264745	        3.7768081191	
        5.0220401441	       49.4094142149	      681.2306490049	      -42.3975918726	       -0.7000000000	       -0.0180000000	        0.5600000000	       -0.7804182765	        5.0748127422	        0.5540017781	       -0.7000000000	       -0.0180000000	       -0.5600000000	      332.4450950240	        2.5421980414	      626.7576002616	       -1.0638609514	        0.2856114897	        3.5932186233	
        5.0240397996	       49.7712925547	      681.4034722441	      -42.4322686929	       -0.7000000000	       -0.0180000000	        0.5600000000	       -0.7017514212	        4.9738725275	        0.5348718248	       -0.7000000000	       -0.0180000000	       -0.5600000000	      332.5881516087	        2.4251856855	      626.1221130516	       -1.0194109504	        0.3498638136	        3.4101344429	
        5.0260402551	       50.1205229223	      681.6447878438	      -42.5014591021	       -0.7000000000	       -0.0180000000	        0.5600000000	       -0.6404707937	        4.8898378973	        0.5189951414	       -0.7000000000	       -0.0180000000	       -0.5600000000	      332.7622381581	        2.3327750366	      625.5486245133	       -0.9816359000	        0.4021873412	        3.2312805889	
        5.0280399506	       50.4546339550	      681.9566843189	      -42.6049561955	       -0.7000000000	       -0.0180000000	        0.5600000000	       -0.6005617932	        4.8250441052	        0.5071321216	       -0.7000000000	       -0.0180000000	       -0.5600000000	      332.9680606297	        2.2662232407	      625.0390827276	       -0.9519824272	        0.4395050938	        3.0607259535	
        5.0300401660	       50.7704707292	      682.3387386044	      -42.7423002681	       -0.7000000000	       -0.0180000000	        0.5600000000	       -0.5851315531	        4.7822363537	        0.4999971066	       -0.7000000000	       -0.0180000000	       -0.5600000000	      333.2052814188	        2.2273068314	      624.5932651081	       -0.9320024269	        0.4590302454	        2.9039045721	
        5.0320398613	       51.0642861150	      682.7885084319	      -42.9128209998	       -0.7000000000	       -0.0180000000	        0.5600000000	       -0.5964975304	        4.7650791729	        0.4981574843	       -0.7000000000	       -0.0180000000	       -0.5600000000	      333.4727314690	        2.2172924313	      624.2094862617	       -0.9235042577	        0.4583891481	        2.7681745821	
        5.0340402367	       51.3321324116	      683.3019438522	      -43.1155822018	       -0.7000000000	       -0.0180000000	        0.5600000000	       -0.6366952419	        4.7780142115	        0.5018412371	       -0.7000000000	       -0.0180000000	       -0.5600000000	      333.7685909035	        2.2364746501	      623.8851168783	       -0.9284855809	        0.4357505635	        2.6623567522	
        5.0360398922	       51.5704593945	      683.8735412989	      -43.3492182548	       -0.7000000000	       -0.0180000000	        0.5600000000	       -0.7081221577	        4.8256251853	        0.5110249342	       -0.7000000000	       -0.0180000000	       -0.5600000000	      334.0904858748	        2.2844729958	      623.6165612987	       -0.9489656679	        0.3896168782	        2.5956635289	
        5.0380402275	       51.7766684525	      684.4964555759	      -43.6117163097	       -0.7000000000	       -0.0180000000	        0.5600000000	       -0.8139253011	        4.9120776026	        0.5256835998	       -0.7000000000	       -0.0180000000	       -0.5600000000	      334.4355670943	        2.3608163896	      623.3989423383	       -0.9868953760	        0.3185115659	        2.5766812613	
        5.0400399230	       51.9494572831	      685.1627106289	      -43.9003540216	       -0.7000000000	       -0.0180000000	        0.5600000000	       -0.9578367352	        5.0410664279	        0.5459373058	       -0.7000000000	       -0.0180000000	       -0.5600000000	      334.8006674641	        2.4649217890	      623.2259491358	       -1.0441968772	        0.2208889623	        2.6130795659	
        5.0420404984	       52.0888612938	      685.8636380541	      -44.2115982143	       -0.7000000000	       -0.0180000000	        0.5600000000	       -1.1435278295	        5.2162027038	        0.5721482559	       -0.7000000000	       -0.0180000000	       -0.5600000000	      335.1824486617	        2.5952422436	      623.0902126469	       -1.1228836118	        0.0951650914	        2.7122347605	
        5.0440399539	       52.1959795159	      686.5906121291	      -44.5410568730	       -0.7000000000	       -0.0180000000	        0.5600000000	       -1.3738051934	        5.4413570805	        0.6047632543	       -0.7000000000	       -0.0180000000	       -0.5600000000	      335.5776012457	        2.7487964251	      622.9842360115	       -1.2250485878	       -0.0599566524	        2.8819654203	
